<svg width="48" height="49" viewBox="0 0 48 49" fill="none" xmlns="http://www.w3.org/2000/svg">
<path d="M5.25 43.6403C6.44123 41.525 8.19 39.7771 10.3059 38.5869C12.4218 37.3967 14.8237 36.8099 17.25 36.8903C22.5 36.8903 26.445 39.3953 28.5 43.6403" stroke="#5069C3" stroke-width="2.5" stroke-linecap="round"/>
<path d="M20.7647 30.8904C20.3347 31.5085 19.7565 32.0089 19.083 32.3457C18.4095 32.6824 17.6622 32.8448 16.9097 32.8179C16.1572 32.8448 15.4099 32.6824 14.7364 32.3457C14.0629 32.0089 13.4847 31.5085 13.0547 30.8904" stroke="#5069C3" stroke-width="2.5" stroke-linecap="round"/>
<path d="M26.25 27.1404C26.25 29.0688 25.6782 30.9538 24.6068 32.5572C23.5355 34.1606 22.0127 35.4103 20.2312 36.1482C18.4496 36.8862 16.4892 37.0793 14.5979 36.7031C12.7066 36.3269 10.9693 35.3983 9.60571 34.0347C8.24215 32.6711 7.31355 30.9339 6.93735 29.0425C6.56114 27.1512 6.75422 25.1908 7.49218 23.4093C8.23013 21.6277 9.47982 20.1049 11.0832 19.0336C12.6866 17.9622 14.5716 17.3904 16.5 17.3904C17.7876 17.3868 19.0628 17.6418 20.25 18.1404" stroke="#5069C3" stroke-width="2.5"/>
<path d="M31.875 29.3904C38.2953 29.3904 43.5 24.1857 43.5 17.7654C43.5 11.3451 38.2953 6.14038 31.875 6.14038C25.4547 6.14038 20.25 11.3451 20.25 17.7654C20.25 24.1857 25.4547 29.3904 31.875 29.3904Z" stroke="#FF4C00" stroke-width="2.5" stroke-linecap="round"/>
<path d="M31.8711 12.8904C32.4924 12.8904 32.9961 12.3867 32.9961 11.7654C32.9961 11.1441 32.4924 10.6404 31.8711 10.6404C31.2498 10.6404 30.7461 11.1441 30.7461 11.7654C30.7461 12.3867 31.2498 12.8904 31.8711 12.8904Z" fill="#FF4C00"/>
<path d="M31.8711 24.8904C32.4924 24.8904 32.9961 24.3867 32.9961 23.7654C32.9961 23.1441 32.4924 22.6404 31.8711 22.6404C31.2498 22.6404 30.7461 23.1441 30.7461 23.7654C30.7461 24.3867 31.2498 24.8904 31.8711 24.8904Z" fill="#FF4C00"/>
<path d="M37.875 18.8904C38.4963 18.8904 39 18.3867 39 17.7654C39 17.1441 38.4963 16.6404 37.875 16.6404C37.2537 16.6404 36.75 17.1441 36.75 17.7654C36.75 18.3867 37.2537 18.8904 37.875 18.8904Z" fill="#FF4C00"/>
<path d="M25.8711 18.8904C26.4924 18.8904 26.9961 18.3867 26.9961 17.7654C26.9961 17.1441 26.4924 16.6404 25.8711 16.6404C25.2498 16.6404 24.7461 17.1441 24.7461 17.7654C24.7461 18.3867 25.2498 18.8904 25.8711 18.8904Z" fill="#FF4C00"/>
<path d="M36.1172 23.1353C36.7385 23.1353 37.2422 22.6316 37.2422 22.0103C37.2422 21.3889 36.7385 20.8853 36.1172 20.8853C35.4959 20.8853 34.9922 21.3889 34.9922 22.0103C34.9922 22.6316 35.4959 23.1353 36.1172 23.1353Z" fill="#FF4C00"/>
<path d="M27.6289 14.6455C28.2502 14.6455 28.7539 14.1418 28.7539 13.5205C28.7539 12.8992 28.2502 12.3955 27.6289 12.3955C27.0076 12.3955 26.5039 12.8992 26.5039 13.5205C26.5039 14.1418 27.0076 14.6455 27.6289 14.6455Z" fill="#FF4C00"/>
<path d="M27.6289 23.1353C28.2502 23.1353 28.7539 22.6316 28.7539 22.0103C28.7539 21.3889 28.2502 20.8853 27.6289 20.8853C27.0076 20.8853 26.5039 21.3889 26.5039 22.0103C26.5039 22.6316 27.0076 23.1353 27.6289 23.1353Z" fill="#FF4C00"/>
<path d="M36.1172 14.6455C36.7385 14.6455 37.2422 14.1418 37.2422 13.5205C37.2422 12.8992 36.7385 12.3955 36.1172 12.3955C35.4959 12.3955 34.9922 12.8992 34.9922 13.5205C34.9922 14.1418 35.4959 14.6455 36.1172 14.6455Z" fill="#FF4C00"/>
</svg>
