<svg width="48" height="49" viewBox="0 0 48 49" fill="none" xmlns="http://www.w3.org/2000/svg">
<path d="M5.69922 36.5529C8.09922 31.1529 13.4992 27.3279 19.7992 27.3279C21.4492 27.3279 23.0992 27.6279 24.5992 28.0779" stroke="#5069C3" stroke-width="2.5" stroke-linecap="round"/>
<path d="M15 20.428C16.125 21.853 17.85 22.753 19.875 22.753C21.825 22.753 23.55 21.853 24.75 20.428" stroke="#5069C3" stroke-width="2.5" stroke-linecap="round"/>
<path d="M19.8 27.2528C25.7647 27.2528 30.6 22.4175 30.6 16.4528C30.6 10.4881 25.7647 5.65283 19.8 5.65283C13.8353 5.65283 9 10.4881 9 16.4528C9 22.4175 13.8353 27.2528 19.8 27.2528Z" stroke="#5069C3" stroke-width="2.5"/>
<path d="M32.7016 32.1277C32.7016 29.4277 30.5266 27.2527 27.9016 27.2527C25.2766 27.2527 23.1016 29.4277 23.1016 32.1277V34.4527" stroke="#6F00FF" stroke-width="2.5" stroke-linecap="round"/>
<path d="M32.6992 32.1277C32.6992 29.4277 34.8742 27.2527 37.4992 27.2527C40.1242 27.2527 42.2992 29.4277 42.2992 32.1277V34.4527" stroke="#6F00FF" stroke-width="2.5" stroke-linecap="round"/>
<path d="M23.1016 34.5278L32.7016 44.1278" stroke="#6F00FF" stroke-width="2.5" stroke-linecap="round"/>
<path d="M42.2992 34.4529L32.6992 44.1279" stroke="#6F00FF" stroke-width="2.5" stroke-linecap="round"/>
</svg>
