<svg width="48" height="49" viewBox="0 0 48 49" fill="none" xmlns="http://www.w3.org/2000/svg">
<path d="M10.785 29.2929L10.5 29.2329L4.5 27.8904V21.8904L11.25 20.3904L12 18.8904L8.25 12.8904L12 9.14038L18 12.1404L19.5 11.3904L21 5.39038H26.25L28.5 11.3904L30 12.1404L36 9.14038L39.75 12.8904L36.75 18.8904L37.5 20.3904L43.5 21.8904V27.8904L37.5 29.3904L36.75 30.8904L39.75 36.8904L36 40.6404L30 37.6404L28.5 38.3904L26.25 44.3904H21.75L19.5 38.3904L18 37.6404L12 40.6404L8.25 36.8904L12 30.8904" stroke="#5069C3" stroke-width="2.5" stroke-linecap="round" stroke-linejoin="round"/>
<path d="M23.9961 17.3904V24.8904L30.7461 31.6404" stroke="#6F00FF" stroke-width="2.5" stroke-linecap="round" stroke-linejoin="round"/>
<path d="M12 30.8904L11.25 29.3904" stroke="#5069C3" stroke-width="2.5" stroke-linecap="round" stroke-linejoin="round"/>
</svg>
